<svg width="22" height="22" viewBox="0 0 22 22" fill="none" xmlns="http://www.w3.org/2000/svg">
<path d="M21.7521 11.5003C21.7554 11.7221 21.7279 11.9435 21.6696 12.1577C21.6113 12.3718 21.523 12.577 21.4073 12.7664C21.2919 12.9558 21.1503 13.1283 20.9867 13.2784C20.8232 13.4286 20.6394 13.5549 20.4407 13.6537C20.4452 13.7128 20.4488 13.7723 20.4508 13.8318C20.4557 13.9504 20.4557 14.0693 20.4508 14.1879C20.4488 14.2474 20.4452 14.3069 20.4407 14.366C20.4407 17.9927 16.215 20.9394 11.0017 20.9394C5.78833 20.9394 1.56261 17.9927 1.56261 14.366C1.55816 14.3069 1.55452 14.2474 1.55249 14.1879C1.54762 14.0693 1.54762 13.9504 1.55249 13.8318C1.55452 13.7723 1.55816 13.7128 1.56261 13.6537C1.25125 13.5105 0.974705 13.3015 0.752113 13.0409C0.52952 12.7804 0.366197 12.4746 0.273445 12.1447C0.180848 11.8147 0.161123 11.4684 0.215638 11.13C0.270154 10.7916 0.397605 10.4691 0.589159 10.1848C0.780545 9.90063 1.03148 9.66146 1.32454 9.48393C1.61761 9.3064 1.9458 9.19476 2.28633 9.15675C2.6269 9.11858 2.9717 9.15492 3.29684 9.26325C3.62197 9.37158 3.91966 9.54931 4.16928 9.78413C4.63266 9.47005 5.11816 9.1899 5.62197 8.94587C6.1259 8.7022 6.64683 8.49496 7.18071 8.32658C7.71459 8.1582 8.26021 8.02908 8.81271 7.93963C9.36521 7.85018 9.92378 7.8012 10.4836 7.7927L11.6817 2.17461C11.695 2.10944 11.7213 2.04792 11.759 1.99287C11.7962 1.93823 11.8444 1.89127 11.8998 1.85525C11.9557 1.81923 12.018 1.79454 12.0836 1.78239C12.1488 1.77065 12.2159 1.77187 12.2807 1.78604L16.2474 2.57937C16.6477 1.89168 17.488 1.59701 18.2299 1.88358C18.9718 2.17015 19.396 2.95337 19.2301 3.73132C19.0645 4.50927 18.3578 5.05165 17.5637 5.01077C16.7691 4.96989 16.1219 4.35789 16.0369 3.56699L12.5721 2.83842L11.5198 7.88984C12.0727 7.90158 12.6243 7.95339 13.17 8.04446C14.2626 8.22659 15.3232 8.5655 16.319 9.0507C16.8164 9.29275 17.2956 9.57032 17.7531 9.88127C18.082 9.56548 18.4953 9.35166 18.9431 9.26563C19.3909 9.1793 19.8541 9.22442 20.2768 9.39556C20.6995 9.56661 21.0638 9.85633 21.3255 10.2298C21.5874 10.6032 21.7355 11.0445 21.7521 11.5003V11.5003ZM5.68471 13.7391C5.76647 13.9354 5.88547 14.1139 6.03604 14.264C6.18621 14.4146 6.36471 14.5336 6.56102 14.6154C6.75751 14.6966 6.96807 14.7384 7.18071 14.7384C7.83561 14.7384 8.42576 14.3438 8.67671 13.7391C8.92726 13.1339 8.78842 12.4377 8.32537 11.9747C7.86233 11.5117 7.16614 11.3728 6.56102 11.6234C5.9563 11.8743 5.56166 12.4645 5.56166 13.1194C5.56166 13.3319 5.60335 13.5423 5.68471 13.7391V13.7391ZM14.9578 17.6256C15.0408 17.5446 15.0881 17.4341 15.0898 17.3184C15.0914 17.2022 15.0464 17.0905 14.9655 17.0075C14.8845 16.9245 14.774 16.8772 14.6583 16.8756C14.5421 16.8739 14.4304 16.9189 14.3369 16.9889C14.0934 17.1635 13.8356 17.3172 13.5662 17.4483C13.2968 17.5795 13.0168 17.6876 12.7292 17.7717C12.4418 17.8555 12.1475 17.915 11.85 17.9494C11.5521 17.9838 11.2522 17.9927 10.9531 17.9765C10.6544 17.9899 10.3549 17.9777 10.0582 17.9405C9.7614 17.9036 9.46835 17.8413 9.18226 17.7543C8.89568 17.6677 8.61761 17.5568 8.35006 17.4232C8.08252 17.2896 7.82671 17.1334 7.58547 16.9565C7.50168 16.8877 7.39523 16.8525 7.28676 16.8577C7.17828 16.863 7.07587 16.9088 6.99897 16.9853C6.92247 17.0622 6.87673 17.1646 6.87147 17.273C6.86621 17.3815 6.90142 17.488 6.97023 17.5717C7.25478 17.7863 7.55714 17.9757 7.87406 18.1384C8.19099 18.3011 8.52168 18.4359 8.86168 18.542C9.20168 18.648 9.55018 18.7245 9.90354 18.7711C10.2569 18.8172 10.6135 18.833 10.9693 18.8184C11.3251 18.833 11.6817 18.8172 12.035 18.7711C12.7428 18.678 13.4292 18.464 14.0645 18.1384C14.3814 17.9757 14.6838 17.7863 14.9683 17.5717L14.9578 17.6256ZM14.6607 14.8679C14.8801 14.8704 15.0979 14.8279 15.3006 14.7437C15.5034 14.6591 15.6868 14.5344 15.8398 14.377C15.9928 14.2195 16.1118 14.0325 16.1903 13.8273C16.2689 13.6223 16.3048 13.4035 16.2959 13.1841C16.2959 12.5292 15.9013 11.9391 15.2966 11.6881C14.6915 11.4376 13.9953 11.5764 13.5322 12.0395C13.0692 12.5025 12.9304 13.1987 13.1809 13.8038C13.4319 14.4085 14.022 14.8032 14.6769 14.8032L14.6607 14.8679Z" fill="#515466"/>
</svg>
