<svg width="22" height="22" viewBox="0 0 22 22" fill="none" xmlns="http://www.w3.org/2000/svg">
<path d="M18.5237 4.34114C17.1846 3.71461 15.7528 3.25927 14.2559 3C14.072 3.33238 13.8573 3.77943 13.7092 4.13507C12.1179 3.89576 10.5413 3.89576 8.97923 4.13507C8.83118 3.77943 8.61152 3.33238 8.42604 3C6.92748 3.25927 5.49401 3.71628 4.15491 4.34446C1.45394 8.42598 0.721752 12.4061 1.08785 16.3298C2.87927 17.6675 4.61538 18.4802 6.32219 19.012C6.74361 18.432 7.11946 17.8155 7.44325 17.1657C6.82659 16.9314 6.23596 16.6422 5.67788 16.3065C5.82594 16.1968 5.97076 16.0821 6.11067 15.9641C9.51454 17.5562 13.2129 17.5562 16.5761 15.9641C16.7177 16.0821 16.8625 16.1968 17.0089 16.3065C16.4492 16.6438 15.8569 16.933 15.2403 17.1674C15.5641 17.8155 15.9383 18.4337 16.3613 19.0137C18.0698 18.4819 19.8075 17.6692 21.5989 16.3298C22.0285 11.7813 20.8651 7.83768 18.5237 4.34114ZM7.90698 13.9168C6.88517 13.9168 6.04721 12.9628 6.04721 11.8012C6.04721 10.6396 6.86728 9.68401 7.90698 9.68401C8.94671 9.68401 9.78464 10.6379 9.76675 11.8012C9.76837 12.9628 8.94671 13.9168 7.90698 13.9168ZM14.7798 13.9168C13.758 13.9168 12.92 12.9628 12.92 11.8012C12.92 10.6396 13.7401 9.68401 14.7798 9.68401C15.8195 9.68401 16.6575 10.6379 16.6396 11.8012C16.6396 12.9628 15.8195 13.9168 14.7798 13.9168Z" fill="#515466"/>

</svg>
