<svg width="22" height="22" viewBox="0 0 22 22" fill="none" xmlns="http://www.w3.org/2000/svg">
<path d="M20.5556 4.89155C19.8371 5.21522 19.0624 5.43059 18.2534 5.52658C19.082 5.02692 19.7161 4.23436 20.018 3.29167C19.2432 3.75317 18.383 4.09161 17.4715 4.27252C16.7383 3.48735 15.696 3 14.5425 3C12.3272 3 10.5334 4.80786 10.5334 7.03784C10.5334 7.3529 10.5676 7.66057 10.636 7.95716C7.30265 7.78732 4.34683 6.18006 2.36855 3.73471C2.02519 4.33036 1.82602 5.02692 1.82602 5.76532C1.82602 7.16583 2.53228 8.40389 3.60879 9.1263C2.9514 9.1066 2.33311 8.92201 1.79058 8.62295V8.67341C1.79058 10.6314 3.17257 12.2658 5.00911 12.6349C4.67308 12.7273 4.3175 12.7777 3.95092 12.7777C3.69188 12.7777 3.44261 12.7507 3.19456 12.7051C3.70654 14.3087 5.18751 15.4778 6.94096 15.5123C5.5663 16.5965 3.83973 17.2426 1.95798 17.2426C1.63295 17.2426 1.31648 17.2229 1 17.1848C2.77911 18.3342 4.88692 19 7.15113 19C14.5278 19 18.5651 12.8429 18.5651 7.50427C18.5651 7.32705 18.5614 7.15476 18.554 6.98124C19.3373 6.41636 20.0167 5.7038 20.5543 4.89277L20.5556 4.89155Z" fill="#515466"/>
</svg>
