<svg width="264" height="96" viewBox="0 0 264 96" fill="none" xmlns="http://www.w3.org/2000/svg">
<g clip-path="url(#clip0_364_2545)">
<rect width="264" height="96" rx="4" fill="#1F1F25"/>
<rect x="45" y="44" width="753" height="8" rx="4" fill="#393943"/>
<rect x="45" y="44" width="75" height="8" rx="4" fill="#5865F2"/>
<rect x="123" y="44" width="45" height="8" rx="4" fill="url(#paint0_linear_364_2545)"/>
<rect x="32" y="31" width="34" height="34" rx="17" fill="#5865F2"/>
<path d="M44.5 48L47.5 51L53.5 45" stroke="white" stroke-width="2" stroke-linecap="round"/>
<rect x="32" y="31" width="34" height="34" rx="17" stroke="#7A84EE" stroke-width="4"/>
<rect x="106" y="31" width="34" height="34" rx="17" fill="#5865F2"/>
<path d="M118.5 48L121.5 51L127.5 45" stroke="white" stroke-width="2" stroke-linecap="round"/>
<rect x="106" y="31" width="34" height="34" rx="17" stroke="#7A84EE" stroke-width="4"/>
<rect x="180" y="31" width="34" height="34" rx="17" fill="#70707C"/>
<path d="M192.036 49.0967L189.576 45.3574H191.941L193.424 47.791L194.921 45.3574H197.286L194.798 49.0967L197.403 53H195.031L193.424 50.3818L191.811 53H189.446L192.036 49.0967Z" fill="#C9C9DA"/>
<path d="M205.158 53H198.172V51.5303L200.68 48.9941C201.186 48.4746 201.592 48.0417 201.897 47.6953C202.207 47.3444 202.43 47.0254 202.567 46.7383C202.708 46.4512 202.779 46.1436 202.779 45.8154C202.779 45.4189 202.667 45.1227 202.444 44.9268C202.225 44.7262 201.931 44.626 201.562 44.626C201.175 44.626 200.799 44.7148 200.434 44.8926C200.07 45.0703 199.689 45.3232 199.293 45.6514L198.144 44.291C198.431 44.0449 198.734 43.8125 199.053 43.5938C199.377 43.375 199.751 43.1995 200.174 43.0674C200.603 42.9307 201.116 42.8623 201.713 42.8623C202.369 42.8623 202.932 42.9808 203.401 43.2178C203.875 43.4548 204.24 43.7783 204.495 44.1885C204.75 44.5941 204.878 45.0544 204.878 45.5693C204.878 46.1208 204.768 46.6243 204.549 47.0801C204.331 47.5358 204.012 47.987 203.592 48.4336C203.178 48.8802 202.676 49.3747 202.089 49.917L200.803 51.127V51.2227H205.158V53Z" fill="white"/>
<rect x="180" y="31" width="34" height="34" rx="17" stroke="#9292A0" stroke-width="4"/>
<rect x="254" y="31" width="34" height="34" rx="17" fill="#505059"/>
<path d="M266.036 49.0967L263.576 45.3574H265.941L267.424 47.791L268.921 45.3574H271.286L268.798 49.0967L271.403 53H269.031L267.424 50.3818L265.811 53H263.446L266.036 49.0967Z" fill="#858592"/>
<path d="M278.768 45.2412C278.768 45.7015 278.673 46.1003 278.481 46.4375C278.29 46.7747 278.03 47.0505 277.702 47.2646C277.378 47.4788 277.014 47.6361 276.608 47.7363V47.7773C277.41 47.8776 278.019 48.1237 278.433 48.5156C278.853 48.9076 279.062 49.4316 279.062 50.0879C279.062 50.6712 278.919 51.193 278.632 51.6533C278.349 52.1136 277.911 52.4759 277.319 52.7402C276.727 53.0046 275.963 53.1367 275.029 53.1367C274.478 53.1367 273.963 53.0911 273.484 53C273.01 52.9134 272.563 52.779 272.144 52.5967V50.7988C272.573 51.0176 273.021 51.1839 273.491 51.2979C273.96 51.4072 274.398 51.4619 274.803 51.4619C275.56 51.4619 276.089 51.332 276.389 51.0723C276.695 50.8079 276.847 50.4388 276.847 49.9648C276.847 49.6868 276.777 49.4521 276.635 49.2607C276.494 49.0693 276.248 48.9235 275.897 48.8232C275.551 48.723 275.065 48.6729 274.441 48.6729H273.682V47.0527H274.455C275.07 47.0527 275.537 46.9958 275.856 46.8818C276.18 46.7633 276.398 46.6038 276.512 46.4033C276.631 46.1982 276.69 45.9658 276.69 45.7061C276.69 45.3506 276.581 45.0726 276.362 44.8721C276.143 44.6715 275.779 44.5713 275.268 44.5713C274.949 44.5713 274.658 44.6123 274.393 44.6943C274.133 44.7718 273.899 44.8675 273.689 44.9814C273.48 45.0908 273.295 45.1979 273.135 45.3027L272.158 43.8467C272.55 43.5641 273.008 43.3294 273.532 43.1426C274.061 42.9557 274.689 42.8623 275.419 42.8623C276.449 42.8623 277.264 43.0697 277.866 43.4844C278.467 43.8991 278.768 44.4847 278.768 45.2412Z" fill="#A5A5A8"/>
<rect x="254" y="31" width="34" height="34" rx="17" stroke="#64646F" stroke-width="4"/>
</g>
<defs>
<linearGradient id="paint0_linear_364_2545" x1="134.4" y1="44" x2="162.3" y2="44" gradientUnits="userSpaceOnUse">
<stop stop-color="#5865F2"/>
<stop offset="1" stop-color="#5865F2" stop-opacity="0"/>
</linearGradient>
<clipPath id="clip0_364_2545">
<rect width="264" height="96" rx="4" fill="white"/>
</clipPath>
</defs>
</svg>
